<?xml version="1.0" encoding="utf-8"?>
<!-- Generator: Adobe Illustrator 20.1.0, SVG Export Plug-In . SVG Version: 6.00 Build 0)  -->
<svg version="1.1" id="Layer_1" xmlns="http://www.w3.org/2000/svg" xmlns:xlink="http://www.w3.org/1999/xlink" x="0px" y="0px"
	 viewBox="0 0 921 192.8" enable-background="new 0 0 921 192.8" xml:space="preserve">
<g>
	<path fill="#FFFFFF" d="M864.3,24.5c22.6,0,39.7,13.8,39.7,36.4c0,21.7-16.1,39.6-40.3,39.6c-27.5,0-39.3-20.7-39.3-38.1
		C824.5,46.8,836.5,24.5,864.3,24.5L864.3,24.5z M866.6,96.5c9,0,27.2-4.8,27.2-32.9c0-23.3-14.2-35.5-30-35.5
		c-16.8,0-28.9,10.5-28.9,31.6C834.8,82.4,848.4,96.5,866.6,96.5L866.6,96.5z"/>
	<path fill="#FFFFFF" d="M114.6,60.6l-4.4-3.5C95,45.2,91.5,39,91.5,30c0-11.6,9.1-19.1,20-19.1c14.6,0,18.8,7.3,19.8,9.1
		c1,1.7,1.9,6,2.1,7.9c0.2,1.3,0.3,2.1,1.3,2.1c0.8,0,1.1-1.1,1.1-3.6c0-10.8,0.6-16,0.6-16.8c0-0.8-0.3-1.1-1.6-1.1
		c-1.2,0-2.5-0.2-5.5-0.8c-4-0.9-8.6-1.6-14.7-1.6c-20.1,0-32.2,11.6-32.2,28.5c0,10.8,4.3,20.6,21.1,34.4l7.1,5.9
		c11.1,9.1,14.7,15,17.1,22.8c1.2,3.4,1.1,7,1.1,10.8c0,5.5-1.4,10.7-3.7,15.3c0.1-0.1,0.2-0.1,0.3-0.2
		c10.9-7.8,12.5-19.8,12.5-26.3C138,84.6,133.3,75.3,114.6,60.6L114.6,60.6z"/>
	<path fill="#FFFFFF" d="M236.9,91.4c-9.8-8.4-12.2-19.5-12.2-28.7c0-6.5,2.4-17.8,11.3-26.5c6.1-5.8,15.2-10.4,30.6-10.4
		c4,0,9.7,0.3,14.6,1.1c3.8,0.7,7,1.4,10.3,1.5c1,0,1.3,0.5,1.3,1c0,0.8-0.2,1.9-0.4,5.5c-0.1,3.2-0.1,8.6-0.3,10
		c-0.1,1.5-0.6,2-1.1,2c-0.7,0-0.8-0.7-0.8-2c0-3.8-1.6-7.7-4.2-9.7c-3.5-2.9-10.8-5.4-19.7-5.4c-12.9,0-19.1,3.4-22.6,6.7
		c-7.4,6.9-9,15.5-9,25.3c0,18.6,14.7,35.2,36.2,35.2c7.5,0,12.6-0.6,16.6-4.6c2.2-2.2,3.5-6.3,3.9-8.1c0.2-1,0.3-1.4,1-1.4
		c0.5,0,0.9,0.7,0.9,1.4c0,0.7-1.4,9.1-2.4,12.4c-0.6,1.8-0.8,2.2-2.5,2.9c-4.1,1.6-11.6,2.2-18.1,2.2
		C254.9,101.8,244.8,98.2,236.9,91.4L236.9,91.4z"/>
	<path fill="#FFFFFF" d="M320,55.2c0-15.1,0-17.8-0.2-20.9c-0.2-3.3-0.8-4.9-4.1-5.4c-0.8-0.1-2.5-0.2-3.4-0.2
		c-0.3,0-0.8-0.5-0.8-0.8c0-0.6,0.5-0.8,1.6-0.8c4.6,0,11.3,0.3,11.9,0.3c1,0,9.5-0.3,12.6-0.3c6.4,0,13.5,0.6,18.7,4.2
		c2.5,1.8,7,6.5,7,13.2c0,7.2-3,14.1-12.3,22.1c8.2,10.3,15.3,19,21,25.1c19.8,21.2,30.1,27.8,32.6,28.1c1.9,0.3,3,0.3,3.5,0.3
		c0.6,0,0.9,0.5,0.9,0.8c0,0.6-0.6,0.8-2.4,0.8h-6.3c-5.7,0-8.2-0.6-10.7-1.9c-4.4-2.3-29.4-28.4-35.1-35.7
		c-4.2-5.3-8.7-11.5-10.8-14.1c-0.5-0.5-0.7-0.6-1.4-0.6l-12.8-0.2c-0.5,0-0.7,0.2-0.7,0.8v2.3c0,9.4,0,16.9,0.5,20.9
		c0.3,2.9,0.9,4.7,4,5.1c1.4,0.2,3.5,0.5,4.5,0.5c0.7,0,0.8,0.5,0.8,0.8c0,0.5-0.5,0.8-1.6,0.8c-5.5,0-11.9-0.4-12.3-0.4
		c-0.1,0-6.8,0.4-9.9,0.4c-1,0-1.6-0.2-1.6-0.8c0-0.3,0.2-0.8,0.8-0.8c0.9,0,2.2-0.2,3.1-0.5c1.9-0.5,2.2-2.3,2.6-5.1
		c0.6-4,0.6-11.6,0.6-21V55.2L320,55.2z M328.7,63.4c0,0.6,0.2,0.9,0.7,1.2c1.5,0.8,6.6,1.5,11.1,1.5c2.4,0,5.1-0.1,7.5-1.7
		c3.4-2.3,6.1-7.4,6.1-14.8c0-12.1-6.6-19.1-17.3-19.1c-3,0-6.2,0.3-7.2,0.6c-0.5,0.2-0.8,0.6-0.8,1.1V63.4L328.7,63.4z"/>
	<path fill="#FFFFFF" d="M561.9,88c0.3,3.4,1,8.7,5.1,10c2.9,0.9,5.5,0.9,6.5,0.9c0.5,0,0.8,0.2,0.8,0.7c0,0.6-0.9,0.9-2.1,0.9
		c-2.3,0-13.5-0.2-17.1-0.6c-2.4-0.2-2.9-0.6-2.9-1c0-0.4,0.2-0.7,0.7-0.8c0.6-0.1,0.7-1.6,0.5-3.4l-4.8-49.1h-0.2l-24.2,49.5
		c-2.1,4.2-2.6,5.1-3.5,5.1c-0.9,0-1.5-0.9-3.4-4.5c-2.6-4.8-9.2-17.2-11.8-22.5c-3-6.2-11.1-22.5-12.8-26.5h-0.4l-3.9,43.8
		c-0.1,1.5-0.1,3.3-0.1,4.9c0,1.5,0.9,2.4,2.4,2.7c1.7,0.5,3.2,0.6,3.9,0.6c0.3,0,0.8,0.3,0.8,0.7c0,0.7-0.7,0.9-1.8,0.9
		c-3.8,0-8.6-0.4-9.4-0.4c-0.9,0-5.7,0.4-8.4,0.4c-1,0-1.7-0.2-1.7-0.9c0-0.4,0.5-0.7,1-0.7c0.8,0,1.5-0.1,3-0.4
		c3.3-0.6,3.4-4.1,3.9-7.8l7.3-63.3c0.1-1,0.6-1.7,1.1-1.7c0.7,0,1.5,0.3,2.1,1.5l30.3,60.3L552,27.4c0.4-0.9,0.9-1.6,1.6-1.6
		c0.7,0,1.3,0.8,1.5,2.6L561.9,88L561.9,88z"/>
	<path fill="#FFFFFF" d="M597.9,55.2c0-15.1,0-17.8-0.2-20.9c-0.2-3.3-0.8-4.9-4.1-5.4c-0.8-0.1-2.5-0.2-3.4-0.2
		c-0.3,0-0.8-0.5-0.8-0.8c0-0.6,0.5-0.8,1.6-0.8c4.6,0,11.1,0.3,11.6,0.3c0.7,0,21.7,0.1,24,0c1.9-0.1,3.8-0.5,4.6-0.6
		c0.5-0.1,0.9-0.5,1.4-0.5c0.3,0,0.5,0.5,0.5,0.9c0,0.7-0.6,1.8-0.8,4.6c-0.1,0.9-0.4,5.3-0.6,6.4c-0.1,0.5-0.5,1-0.9,1
		c-0.6,0-0.8-0.5-0.8-1.3c0-0.7-0.1-2.3-0.6-3.4c-0.7-1.6-1.7-2.3-7.2-3c-1.7-0.2-13.3-0.4-14.5-0.4c-0.4,0-0.6,0.4-0.6,1v26.4
		c0,0.7,0,1,0.6,1c1.3,0,14.5,0,16.8-0.2c2.4-0.2,3.9-0.4,4.9-1.4c0.7-0.7,1.1-1.3,1.5-1.3c0.3,0,0.6,0.2,0.6,0.8
		c0,0.6-0.6,2.2-0.8,5.4c-0.2,1.9-0.5,5.6-0.5,6.3c0,0.8-0.2,1.8-0.9,1.8c-0.5,0-0.7-0.4-0.7-0.9c0-0.9,0-1.9-0.5-3.2
		c-0.3-1.4-1.3-2.5-5.1-3c-2.7-0.4-13.5-0.5-15.2-0.5c-0.5,0-0.7,0.4-0.7,0.7v8.1c0,3.3-0.1,14.6,0,16.6c0.3,6.5,2.1,7.7,12,7.7
		c2.6,0,7.4,0,10-1c2.6-1.1,4-2.9,4.6-6.7c0.2-1.2,0.5-1.5,1-1.5s0.7,0.8,0.7,1.5c0,0.7-0.8,7.3-1.4,9.3c-0.7,2.5-1.7,2.5-5.6,2.5
		c-7.5,0-13.4-0.2-17.5-0.3c-4.2-0.2-6.8-0.2-8.3-0.2c-0.2,0-2.2,0-4.4,0.1c-1.9,0.1-4.2,0.2-5.8,0.2c-1,0-1.6-0.2-1.6-0.8
		c0-0.3,0.2-0.8,0.8-0.8c0.9,0,2.2-0.4,3.1-0.5c1.9-0.3,2.2-2.3,2.6-5.1c0.6-4,0.6-11.6,0.6-21V55.2L597.9,55.2z"/>
	<path fill="#FFFFFF" d="M667.5,87.3c0.2,8,1.1,10.4,3.9,11.1c1.8,0.5,4.1,0.6,5,0.6c0.4,0,0.8,0.3,0.8,0.8c0,0.6-0.7,0.8-1.8,0.8
		c-5.7,0-9.7-0.4-10.6-0.4c-0.9,0-5.1,0.4-9.7,0.4c-1,0-1.6-0.1-1.6-0.8c0-0.5,0.3-0.8,0.8-0.8c0.8,0,2.6-0.1,4.1-0.6
		c2.5-0.7,2.9-3.3,2.9-12.1V30.7c0-3.9,0.6-4.9,1.4-4.9c1.2,0,2.9,1.9,3.9,3c1.6,1.6,16.2,17.1,31.7,33.1
		c9.9,10.3,20.7,21.8,23.7,25l-1-48.6c-0.1-6.3-0.7-8.4-3.8-9c-1.8-0.3-4.1-0.4-4.9-0.4c-0.7,0-0.8-0.6-0.8-0.9
		c0-0.6,0.8-0.7,1.9-0.7c4.6,0,9.4,0.3,10.5,0.3c1.1,0,4.4-0.3,8.6-0.3c1,0,1.8,0.1,1.8,0.7c0,0.4-0.4,0.9-1.1,0.9
		c-0.4,0-1.3,0-2.4,0.2c-3.3,0.7-3.5,2.6-3.5,8.5l-0.2,56.8c0,6.4-0.1,6.9-0.8,6.9c-1,0-2.1-0.8-7.6-5.9c-1-0.9-15.5-15.2-26.1-26.2
		c-11.6-12.2-22.9-24.1-26-27.5L667.5,87.3L667.5,87.3z"/>
	<path fill="#FFFFFF" d="M786.1,72.3c0,9.4,0,17,0.5,21c0.3,2.9,0.8,4.7,3.9,5.1c1.4,0.2,3.6,0.5,4.6,0.5c0.7,0,0.8,0.5,0.8,0.8
		c0,0.5-0.5,0.8-1.6,0.8c-5.5,0-11.9-0.4-12.4-0.4c-0.5,0-7.4,0.4-10.4,0.4c-1.1,0-1.6-0.2-1.6-0.8c0-0.3,0.2-0.7,0.8-0.7
		c0.9,0,2.1-0.2,3-0.5c2-0.4,2.6-2.4,3-5.3c0.4-4,0.4-11.6,0.4-21V31.6l-14.5,0.2c-6.3,0.1-8.7,0.8-10.2,3.1
		c-1.1,1.7-1.3,2.4-1.6,3.1c-0.2,0.8-0.6,0.9-1,0.9c-0.2,0-0.7-0.2-0.7-0.8c0-1,2.1-9.7,2.2-10.5c0.2-0.6,0.7-1.8,1-1.8
		c0.7,0,1.7,0.8,4.4,1.1c2.9,0.4,6.7,0.5,7.9,0.5h37.9c3.3,0,5.6-0.3,7.2-0.5c1.5-0.2,2.4-0.5,2.9-0.5c0.5,0,0.5,0.6,0.5,1.1
		c0,3-0.3,9.9-0.3,11.1c0,0.8-0.5,1.2-0.9,1.2c-0.4,0-0.7-0.3-0.8-1.7l-0.1-1c-0.4-3-2.5-5.1-12.1-5.4l-12.5-0.2V72.3L786.1,72.3z"
		/>
	<path fill="#FFFFFF" d="M411.4,74.3l-5.7,15.5c-0.9,2.4-1.5,4.8-1.5,6.5c0,1.9,1.7,2.6,3.4,2.6h0.9c0.8,0,1,0.3,1,0.8
		c0,0.6-0.6,0.8-1.5,0.8c-2.4,0-7.9-0.4-9-0.4c-1,0-6,0.4-10.2,0.4c-1.2,0-1.9-0.2-1.9-0.8c0-0.5,0.5-0.8,0.9-0.8
		c0.7,0,2.2-0.1,3-0.2c4.6-0.6,6.5-4,8.4-8.9L423,29.1c1.3-3.2,1.7-3.8,2.4-3.8c1,0,1.4,1.4,2.4,3.5c1.8,4.1,17.9,44.1,24.1,58.9
		c3.6,8.7,6.4,9.9,8.5,10.6c1.5,0.5,3,0.6,4,0.6c0.6,0,1.3,0.2,1.3,0.8c0,0.6-1.1,0.8-2.3,0.8c-1.5,0-8.9,0-15.9-0.2
		c-2-0.1-3.5-0.1-3.5-0.7c0-0.5,0.2-0.5,0.7-0.7c0.6-0.2,1.6-1,0.9-2.6l-9-22.3l-2.1-5.2l-9.9-26.6c-0.6-1.5-1.2-1.5-1.7,0
		l-9.4,26.6L411.4,74.3L411.4,74.3z"/>
	<path fill="#FFFFFF" d="M429.4,78c0,2.6-2.1,4.7-4.8,4.7c-2.6,0-4.8-2.1-4.8-4.7c0-2.6,2.1-4.8,4.8-4.8
		C427.2,73.2,429.4,75.4,429.4,78L429.4,78z"/>
	<path fill="#FFFFFF" d="M167.4,74.3l-5.7,15.5c-0.9,2.4-1.5,4.8-1.5,6.5c0,1.9,1.7,2.6,3.4,2.6h0.9c0.8,0,1,0.3,1,0.8
		c0,0.6-0.6,0.8-1.5,0.8c-2.4,0-7.9-0.4-9-0.4c-1,0-6,0.4-10.2,0.4c-1.2,0-1.9-0.2-1.9-0.8c0-0.5,0.5-0.8,0.9-0.8
		c0.7,0,2.2-0.1,3-0.2c4.6-0.6,6.5-4,8.4-8.9l23.6-60.7c1.3-3.2,1.7-3.8,2.4-3.8c1,0,1.4,1.4,2.4,3.5c1.8,4.1,17.9,44.1,24.1,58.9
		c3.6,8.7,6.4,9.9,8.5,10.6c1.5,0.5,3,0.6,4,0.6c0.6,0,1.3,0.2,1.3,0.8c0,0.6-1.1,0.8-2.3,0.8c-1.5,0-8.9,0-15.9-0.2
		c-1.9-0.1-3.5-0.1-3.5-0.7c0-0.5,0.2-0.5,0.7-0.7c0.6-0.2,1.6-1,0.9-2.6l-9-22.3l-2.1-5.2l-9.9-26.6c-0.6-1.5-1.1-1.5-1.7,0
		l-9.4,26.6L167.4,74.3L167.4,74.3z"/>
	<path fill="#FFFFFF" d="M185.3,78c0,2.6-2.1,4.7-4.7,4.7c-2.6,0-4.8-2.1-4.8-4.7c0-2.6,2.1-4.8,4.8-4.8
		C183.1,73.2,185.3,75.4,185.3,78L185.3,78z"/>
</g>
<g>
	<path fill="#FFFFFF" d="M478.2,129c-2.3-3-6.1-4.7-9.8-4.7c-9.1,0-15.2,7.3-15.2,16.6c0,8.6,5.7,15.9,15.2,15.9
		c4.7,0,8.2-2.1,10.6-5.5l4.7,3.5c-1.2,1.7-6.1,7.1-15.4,7.1c-12.9,0-20.9-10.8-20.9-21c0-12.6,8.7-21.7,21.2-21.7
		c5.3,0,11,2,14.3,6.3L478.2,129L478.2,129z"/>
	<path fill="#FFFFFF" d="M524.9,140.6c0-12.1,8.8-21.4,21.2-21.4c12.4,0,21.2,9.3,21.2,21.4c0,12.1-8.8,21.4-21.2,21.4
		C533.7,161.9,524.9,152.6,524.9,140.6L524.9,140.6z M561.5,140.6c0-8.9-6-16.2-15.3-16.2c-9.3,0-15.3,7.3-15.3,16.2
		c0,8.9,6,16.2,15.3,16.2C555.4,156.8,561.5,149.5,561.5,140.6L561.5,140.6z"/>
	<path fill="#FFFFFF" d="M618.6,120.2v24.9c0,5.1,2.5,11.6,10.2,11.6c7.7,0,10.2-6.6,10.2-11.6v-24.9h5.5V146
		c0,9.4-6.8,15.9-15.8,15.9c-8.9,0-15.7-6.5-15.7-15.9v-25.8H618.6L618.6,120.2z"/>
	<polygon fill="#FFFFFF" points="692.9,120.2 700.1,120.2 722.5,153.7 722.7,153.7 722.7,120.2 728.2,120.2 728.2,160.9 
		721.2,160.9 698.5,127.4 698.4,127.4 698.4,160.9 692.9,160.9 692.9,120.2 	"/>
	<polygon fill="#FFFFFF" points="785.5,125.4 772.4,125.4 772.4,120.2 804.1,120.2 804.1,125.4 791,125.4 791,160.9 785.5,160.9 
		785.5,125.4 	"/>
	<polygon fill="#FFFFFF" points="860.8,143.5 845.4,120.2 852.5,120.2 863.6,138.1 875,120.2 881.8,120.2 866.3,143.5 866.3,160.9 
		860.8,160.9 860.8,143.5 	"/>
</g>
<path fill="#006CB6" d="M374.7,145c0,0-62.7,49.8-172.6,2C113.7,108.5,29,151.5,29,151.5s71.2-66.8,169.3-23.4
	C305.1,175.4,374.7,145,374.7,145L374.7,145z"/>
<path fill="#8BA5D5" d="M187.9,147.7c0,0,42.8,26.8,100.6,29.4c64.7,2.9,123.4-42.7,123.4-42.7s-45.9,59.7-120.3,54.6
	C217,183.8,187.9,147.7,187.9,147.7L187.9,147.7z"/>
</svg>
